<svg width="400" height="400" viewBox="0 0 400 400" fill="none" xmlns="http://www.w3.org/2000/svg">
  <!-- Background circle -->
  <circle cx="200" cy="200" r="180" fill="#f0f9ff" opacity="0.5"/>

  <!-- Data table representation -->
  <rect x="80" y="120" width="240" height="160" rx="8" fill="white" stroke="#3b82f6" stroke-width="3"/>

  <!-- Table rows -->
  <line x1="80" y1="160" x2="320" y2="160" stroke="#e5e7eb" stroke-width="2"/>
  <line x1="80" y1="200" x2="320" y2="200" stroke="#e5e7eb" stroke-width="2"/>
  <line x1="80" y1="240" x2="320" y2="240" stroke="#e5e7eb" stroke-width="2"/>

  <!-- Table columns -->
  <line x1="160" y1="120" x2="160" y2="280" stroke="#e5e7eb" stroke-width="2"/>
  <line x1="240" y1="120" x2="240" y2="280" stroke="#e5e7eb" stroke-width="2"/>

  <!-- Checkmark in shield (data validation symbol) -->
  <g transform="translate(280, 80)">
    <circle cx="0" cy="0" r="50" fill="#10b981" opacity="0.2"/>
    <circle cx="0" cy="0" r="35" fill="#10b981"/>
    <path d="M -12 0 L -5 10 L 15 -12" stroke="white" stroke-width="5" stroke-linecap="round" stroke-linejoin="round" fill="none"/>
  </g>

  <!-- Data bars (representing data quality metrics) -->
  <rect x="100" y="135" width="40" height="15" rx="2" fill="#3b82f6" opacity="0.6"/>
  <rect x="180" y="135" width="40" height="15" rx="2" fill="#3b82f6" opacity="0.6"/>
  <rect x="260" y="135" width="40" height="15" rx="2" fill="#3b82f6" opacity="0.6"/>

  <rect x="100" y="175" width="40" height="15" rx="2" fill="#10b981" opacity="0.6"/>
  <rect x="180" y="175" width="40" height="15" rx="2" fill="#10b981" opacity="0.6"/>
  <rect x="260" y="175" width="40" height="15" rx="2" fill="#10b981" opacity="0.6"/>

  <rect x="100" y="215" width="40" height="15" rx="2" fill="#3b82f6" opacity="0.6"/>
  <rect x="180" y="215" width="40" height="15" rx="2" fill="#ef4444" opacity="0.6"/>
  <rect x="260" y="215" width="40" height="15" rx="2" fill="#3b82f6" opacity="0.6"/>

  <rect x="100" y="255" width="40" height="15" rx="2" fill="#10b981" opacity="0.6"/>
  <rect x="180" y="255" width="40" height="15" rx="2" fill="#10b981" opacity="0.6"/>
  <rect x="260" y="255" width="40" height="15" rx="2" fill="#10b981" opacity="0.6"/>

  <!-- Warning/error indicator on problematic row -->
  <g transform="translate(50, 223)">
    <circle cx="0" cy="0" r="12" fill="#ef4444"/>
    <text x="0" y="5" text-anchor="middle" font-family="Arial, sans-serif" font-size="16" font-weight="bold" fill="white">!</text>
  </g>

  <!-- Success indicators -->
  <g transform="translate(50, 143)">
    <circle cx="0" cy="0" r="10" fill="#10b981"/>
    <path d="M -3 0 L -1 3 L 4 -3" stroke="white" stroke-width="2" stroke-linecap="round" stroke-linejoin="round" fill="none"/>
  </g>

  <g transform="translate(50, 183)">
    <circle cx="0" cy="0" r="10" fill="#10b981"/>
    <path d="M -3 0 L -1 3 L 4 -3" stroke="white" stroke-width="2" stroke-linecap="round" stroke-linejoin="round" fill="none"/>
  </g>

  <g transform="translate(50, 263)">
    <circle cx="0" cy="0" r="10" fill="#10b981"/>
    <path d="M -3 0 L -1 3 L 4 -3" stroke="white" stroke-width="2" stroke-linecap="round" stroke-linejoin="round" fill="none"/>
  </g>

  <!-- Decorative code brackets -->
  <text x="60" y="110" font-family="monospace" font-size="24" fill="#6b7280" opacity="0.5">&lt;/&gt;</text>
  <text x="320" y="300" font-family="monospace" font-size="24" fill="#6b7280" opacity="0.5">{  }</text>

  <!-- Small data flow arrows -->
  <g opacity="0.4">
    <path d="M 30 200 L 60 200" stroke="#3b82f6" stroke-width="2" marker-end="url(#arrowhead)"/>
    <path d="M 340 200 L 370 200" stroke="#10b981" stroke-width="2" marker-end="url(#arrowhead-green)"/>
  </g>

  <!-- Arrow markers -->
  <defs>
    <marker id="arrowhead" markerWidth="10" markerHeight="10" refX="9" refY="3" orient="auto">
      <polygon points="0 0, 10 3, 0 6" fill="#3b82f6" />
    </marker>
    <marker id="arrowhead-green" markerWidth="10" markerHeight="10" refX="9" refY="3" orient="auto">
      <polygon points="0 0, 10 3, 0 6" fill="#10b981" />
    </marker>
  </defs>
</svg>
