<svg width="48" height="48" viewBox="0 0 48 48" fill="none" xmlns="http://www.w3.org/2000/svg">
  <!-- Parquet Icon - Columnar storage representation -->
  <rect x="8" y="8" width="8" height="32" rx="1" fill="#f59e0b" opacity="0.8"/>
  <rect x="18" y="12" width="8" height="28" rx="1" fill="#f59e0b" opacity="0.6"/>
  <rect x="28" y="10" width="8" height="30" rx="1" fill="#f59e0b" opacity="0.9"/>

  <!-- Column lines to show compression -->
  <line x1="10" y1="15" x2="14" y2="15" stroke="#fff" stroke-width="0.5" opacity="0.5"/>
  <line x1="10" y1="20" x2="14" y2="20" stroke="#fff" stroke-width="0.5" opacity="0.5"/>
  <line x1="10" y1="25" x2="14" y2="25" stroke="#fff" stroke-width="0.5" opacity="0.5"/>
  <line x1="10" y1="30" x2="14" y2="30" stroke="#fff" stroke-width="0.5" opacity="0.5"/>

  <line x1="20" y1="18" x2="24" y2="18" stroke="#fff" stroke-width="0.5" opacity="0.5"/>
  <line x1="20" y1="24" x2="24" y2="24" stroke="#fff" stroke-width="0.5" opacity="0.5"/>
  <line x1="20" y1="30" x2="24" y2="30" stroke="#fff" stroke-width="0.5" opacity="0.5"/>

  <line x1="30" y1="16" x2="34" y2="16" stroke="#fff" stroke-width="0.5" opacity="0.5"/>
  <line x1="30" y1="22" x2="34" y2="22" stroke="#fff" stroke-width="0.5" opacity="0.5"/>
  <line x1="30" y1="28" x2="34" y2="28" stroke="#fff" stroke-width="0.5" opacity="0.5"/>
  <line x1="30" y1="34" x2="34" y2="34" stroke="#fff" stroke-width="0.5" opacity="0.5"/>
</svg>
